<svg width="1200" height="430" viewBox="0 0 1200 430" xmlns="http://www.w3.org/2000/svg">
<rect width="1200" height="430" fill="#1b1919"/>
<rect x="170" y="60" width="860" height="310" rx="14" fill="#211E1E" stroke="#3a3636" stroke-width="2"/>
<rect x="170" y="60" width="860" height="56" rx="14" fill="#262222"/>
<rect x="170" y="104" width="860" height="12" fill="#262222"/>
<circle cx="202" cy="88" r="6" fill="#4B4646"/><circle cx="224" cy="88" r="6" fill="#4B4646"/><circle cx="246" cy="88" r="6" fill="#4B4646"/>
<g transform="translate(470,75) scale(0.86)"><path d="M18 30H6V18H18V30Z" fill="#4B4646"/><path d="M18 12H6V30H18V12ZM24 36H0V6H24V36Z" fill="#B7B1B1"/><path d="M48 30H36V18H48V30Z" fill="#4B4646"/><path d="M36 30H48V12H36V30ZM54 36H36V42H30V6H54V36Z" fill="#B7B1B1"/><path d="M84 24V30H66V24H84Z" fill="#4B4646"/><path d="M84 24H66V30H84V36H60V6H84V24ZM66 18H78V12H66V18Z" fill="#B7B1B1"/><path d="M108 36H96V18H108V36Z" fill="#4B4646"/><path d="M108 12H96V36H90V6H108V12ZM114 36H108V12H114V36Z" fill="#B7B1B1"/><path d="M144 30H126V18H144V30Z" fill="#4B4646"/><path d="M144 12H126V30H144V36H120V6H144V12Z" fill="#F1ECEC"/><path d="M168 30H156V18H168V30Z" fill="#4B4646"/><path d="M168 12H156V30H168V12ZM174 36H150V6H174V36Z" fill="#F1ECEC"/><path d="M198 30H186V18H198V30Z" fill="#4B4646"/><path d="M198 12H186V30H198V12ZM204 36H180V6H198V0H204V36Z" fill="#F1ECEC"/><path d="M234 24V30H216V24H234Z" fill="#4B4646"/><path d="M216 12V18H228V12H216ZM234 24H216V30H234V36H210V6H234V24Z" fill="#F1ECEC"/></g>
<text x="700" y="94" font-family="'SF Mono','SFMono-Regular','Menlo','Monaco',monospace" font-size="26" letter-spacing="3" fill="#6f6b6b">usage</text>
<text x="210" y="170" font-family="'SF Mono','SFMono-Regular','Menlo','Monaco',monospace" font-size="26" fill="#8a8686">$ /usage</text>
<text x="210" y="214" font-family="'SF Mono','SFMono-Regular','Menlo','Monaco',monospace" font-size="24" fill="#B7B1B1">Today      $4.90</text>
<rect x="470" y="196" width="150" height="16" fill="#3a3636"/><rect x="470" y="196" width="44" height="16" fill="#B7B1B1"/>
<text x="210" y="252" font-family="'SF Mono','SFMono-Regular','Menlo','Monaco',monospace" font-size="24" fill="#B7B1B1">This Week  $37.88</text>
<rect x="470" y="234" width="150" height="16" fill="#3a3636"/><rect x="470" y="234" width="92" height="16" fill="#B7B1B1"/>
<text x="210" y="290" font-family="'SF Mono','SFMono-Regular','Menlo','Monaco',monospace" font-size="24" fill="#B7B1B1">This Month $94.88</text>
<rect x="470" y="272" width="150" height="16" fill="#3a3636"/><rect x="470" y="272" width="132" height="16" fill="#E6B450"/>
<text x="210" y="328" font-family="'SF Mono','SFMono-Regular','Menlo','Monaco',monospace" font-size="24" fill="#F1ECEC">All Time  $145.91</text>
<rect x="470" y="310" width="150" height="16" fill="#3a3636"/><rect x="470" y="310" width="150" height="16" fill="#E6B450"/>
</svg>
